<svg width="109" height="20" viewBox="0 0 109 20" fill="none" xmlns="http://www.w3.org/2000/svg">
<path d="M8.63233 0.223462H12.9066V19.7765H10.0012V5.75419L7.87804 19.7765H4.97267L2.68189 5.94972V19.7765H0V0.223462H4.27426L6.5371 14.1061L8.63233 0.223462Z" fill="#1F2124"/>
<path d="M14.4494 4.9162C14.4494 3.35195 14.8498 2.14153 15.6507 1.28491C16.4515 0.428305 17.6062 0 19.1148 0C20.6233 0 21.778 0.428305 22.5789 1.28491C23.3797 2.14153 23.7801 3.35195 23.7801 4.9162V15.0838C23.7801 16.648 23.3797 17.8585 22.5789 18.7151C21.778 19.5717 20.6233 20 19.1148 20C17.6062 20 16.4515 19.5717 15.6507 18.7151C14.8498 17.8585 14.4494 16.648 14.4494 15.0838V4.9162ZM17.5224 15.2793C17.5224 16.5642 18.0532 17.2067 19.1148 17.2067C20.1763 17.2067 20.7071 16.5642 20.7071 15.2793V4.72067C20.7071 3.43575 20.1763 2.79329 19.1148 2.79329C18.0532 2.79329 17.5224 3.43575 17.5224 4.72067V15.2793Z" fill="#1F2124"/>
<path d="M30.197 0.223462C31.7242 0.223462 32.8695 0.633146 33.6331 1.45251C34.3967 2.27188 34.7785 3.473 34.7785 5.05587V14.9441C34.7785 16.527 34.3967 17.7281 33.6331 18.5475C32.8695 19.3669 31.7242 19.7765 30.197 19.7765H25.336V0.223462H30.197ZM28.409 16.9832H30.1411C30.6439 16.9832 31.0257 16.8343 31.2865 16.5363C31.5658 16.2384 31.7055 15.7542 31.7055 15.0838V4.9162C31.7055 4.24581 31.5658 3.76164 31.2865 3.46369C31.0257 3.16573 30.6439 3.01676 30.1411 3.01676H28.409V16.9832Z" fill="#1F2124"/>
<path d="M43.59 8.46369V11.257H39.3716V16.9832H44.6795V19.7765H36.2986V0.223462H44.6795V3.01676H39.3716V8.46369H43.59Z" fill="#1F2124"/>
<path d="M52.568 19.7765C52.4563 19.46 52.3818 19.162 52.3446 18.8827C52.3073 18.6034 52.2887 18.1006 52.2887 17.3743V14.3017C52.2887 13.4078 52.1304 12.7747 51.8138 12.4022C51.4972 12.0112 50.985 11.8156 50.2773 11.8156H49.2157V19.7765H46.1427V0.223462H50.7801C52.3632 0.223462 53.5179 0.595902 54.2442 1.34078C54.9706 2.06704 55.3337 3.19367 55.3337 4.72067V6.25698C55.3337 8.26816 54.6633 9.59031 53.3223 10.2235C54.0487 10.5214 54.5702 11.0242 54.8868 11.7318C55.2034 12.4209 55.3617 13.3054 55.3617 14.3855V17.4022C55.3617 17.9609 55.3803 18.4171 55.4176 18.7709C55.4548 19.1061 55.5479 19.4413 55.6969 19.7765H52.568ZM49.2157 9.02235H50.417C51.0316 9.02235 51.4878 8.86406 51.7858 8.54748C52.1024 8.23091 52.2607 7.70019 52.2607 6.95531V5.02793C52.2607 4.3203 52.1304 3.80819 51.8696 3.49162C51.6275 3.17505 51.2364 3.01676 50.6963 3.01676H49.2157V9.02235Z" fill="#1F2124"/>
<path d="M59.6794 19.7765H56.9137V0.223462H60.7689L63.9257 11.9274V0.223462H66.6634V19.7765H63.5066L59.6794 5.61452V19.7765Z" fill="#1F2124"/>
<path d="M75.8248 4.9162C75.8248 3.33333 76.2066 2.1229 76.9702 1.28491C77.7338 0.428305 78.8605 0 80.3505 0C81.8404 0 82.9672 0.428305 83.7308 1.28491C84.4944 2.1229 84.8761 3.33333 84.8761 4.9162V5.53072H81.9708V4.72067C81.9708 4.05028 81.8404 3.56611 81.5797 3.26816C81.3189 2.95158 80.9371 2.79329 80.4343 2.79329C79.9314 2.79329 79.5496 2.95158 79.2889 3.26816C79.0281 3.56611 78.8978 4.05028 78.8978 4.72067C78.8978 5.54004 79.112 6.25698 79.5403 6.87151C79.9873 7.48603 80.6485 8.18436 81.5238 8.96648C82.2501 9.63687 82.8368 10.2328 83.2838 10.7542C83.7308 11.257 84.1126 11.8715 84.4292 12.5978C84.7458 13.324 84.9041 14.1527 84.9041 15.0838C84.9041 16.6667 84.513 17.8864 83.7308 18.743C82.9485 19.581 81.8125 20 80.3225 20C78.8326 20 77.6965 19.581 76.9143 18.743C76.1321 17.8864 75.741 16.6667 75.741 15.0838V13.8827H78.6463V15.2793C78.6463 16.5456 79.1771 17.1788 80.2387 17.1788C81.3003 17.1788 81.8311 16.5456 81.8311 15.2793C81.8311 14.46 81.6076 13.743 81.1606 13.1285C80.7322 12.514 80.0804 11.8156 79.2051 11.0335C78.4787 10.3631 77.8921 9.77654 77.4451 9.27374C76.9981 8.75233 76.6163 8.12849 76.2997 7.40223C75.9831 6.67598 75.8248 5.8473 75.8248 4.9162Z" fill="#1F2124"/>
<path d="M89.2966 0.223462V19.7765H86.2236V0.223462H89.2966Z" fill="#1F2124"/>
<path d="M99.7068 0.223462V3.01676H96.4941V19.7765H93.4211V3.01676H90.2085V0.223462H99.7068Z" fill="#1F2124"/>
<path d="M107.91 8.46369V11.257H103.692V16.9832H109V19.7765H100.619V0.223462H109V3.01676H103.692V8.46369H107.91Z" fill="#1F2124"/>
</svg>
